<?xml version="1.0" encoding="utf-8"?>
<!-- Generator: Adobe Illustrator 23.0.1, SVG Export Plug-In . SVG Version: 6.00 Build 0)  -->
<svg version="1.1" id="Livello_1" xmlns="http://www.w3.org/2000/svg" xmlns:xlink="http://www.w3.org/1999/xlink" x="0px" y="0px"
	 viewBox="0 0 622.07 151.03" style="enable-background:new 0 0 622.07 151.03;" xml:space="preserve">
<style type="text/css">
	.st0{fill:none;}
	.st1{fill:#1B1464;}
	.st2{fill:#C1272D;}
</style>
<g>
	<rect x="-37.87" y="25.7" class="st0" width="683.45" height="103.64"/>
	<path class="st1" d="M122.36,122.28c0,1.41-0.66,2.12-1.98,2.12h-24.2c-1.32,0-1.98-0.8-1.98-2.39c0-4.6,0.17-11.51,0.51-20.71
		c0.34-9.21,0.51-16.11,0.51-20.71c0-1.32-0.21-2.03-0.62-2.12c-0.5,0.27-3.55,7.31-9.16,21.12c-3.28,8.11-6.56,16.2-9.84,24.27
		c-0.46,1.05-1.03,1.66-1.71,1.85c-0.23,0.04-1.14,0.07-2.73,0.07c-2.37,0-3.78-0.46-4.24-1.37c-2.46-5.01-5.7-12.3-9.71-21.88
		c-4.28-10.12-7.5-17.43-9.64-21.94c-0.09-0.23-0.3-0.48-0.62-0.75c-0.32,0.41-0.48,1.07-0.48,1.98c0,4.47,0.11,11.17,0.34,20.1
		c0.23,8.93,0.34,15.63,0.34,20.1c0,1.6-0.64,2.39-1.91,2.39H22.42c-0.91,0-1.47-0.15-1.67-0.44c-0.21-0.3-0.31-0.81-0.31-1.54
		c0-4.97,0.24-12.43,0.72-22.39c0.48-9.96,0.72-17.42,0.72-22.39c0-5.29-0.23-15.2-0.68-29.74c-0.05-3.78-0.25-9.41-0.62-16.88
		l-0.07-1.16c-0.05-0.91,0.91-1.37,2.87-1.37c2.51,0,6.27-0.08,11.28-0.24c5.01-0.16,8.77-0.24,11.28-0.24
		c0.5,0,1.21,0.96,2.12,2.87L68.02,74.7c1.41,2.96,2.6,4.44,3.55,4.44c0.5,0,1.57-1.71,3.21-5.13c4.6-9.57,11.42-23.99,20.44-43.27
		c0.77-1.78,1.62-2.67,2.53-2.67c1.32,0,3.32,0.07,5.98,0.21s4.68,0.21,6.05,0.21c1.14,0,2.88-0.11,5.23-0.34
		c2.35-0.23,4.09-0.34,5.23-0.34c1.37,0,2.05,0.55,2.05,1.64c0,5.38-0.19,13.41-0.58,24.1c-0.39,10.69-0.58,18.72-0.58,24.1
		c0,4.97,0.21,12.42,0.62,22.35C122.16,109.93,122.36,117.36,122.36,122.28z"/>
	<path class="st2" d="M183.41,71.76c0,1.41-0.32,3.26-0.96,5.54c-0.55,1.82-1.07,3.67-1.57,5.54c-0.18,2.28-0.62,5.58-1.3,9.91
		c-0.14,0.64-0.68,0.96-1.64,0.96c-1.73,0-4.34-0.02-7.83-0.07c-3.49-0.04-6.12-0.07-7.9-0.07c-4.79,0-11.21,0.43-19.28,1.3
		c-0.46,0.05-1.69,0.23-3.69,0.55c-1.6,0.27-2.85,0.41-3.76,0.41c-1.19,0-1.78-1.12-1.78-3.35c0-1.18,0.77-4.49,2.32-9.91
		c1.5-5.15,2.6-8.48,3.28-9.98c0.32-0.73,0.91-1.09,1.78-1.09c1.78,0,4.44,0.09,8,0.27c3.55,0.18,6.22,0.27,8,0.27
		c3.74,0,9.91-0.55,18.53-1.64c4.51-0.59,6.63-0.89,6.36-0.89C182.93,69.5,183.41,70.26,183.41,71.76z"/>
	<path class="st2" d="M241.17,92.95c0,9.25-3.9,17.18-11.69,23.79c-6.84,5.83-15.15,9.55-24.95,11.14
		c-0.37,0.04-0.66,0.07-0.89,0.07c-1.05,0-3.37-3.2-6.97-9.6c-3.6-6.4-5.4-10.31-5.4-11.72c0-0.5,0.34-0.82,1.03-0.96
		c6.61-1.5,10.98-2.78,13.13-3.83c4.74-2.37,7.11-5.88,7.11-10.53c0-2.96-1.55-6.27-4.65-9.91c-5.38-6.2-8.29-9.64-8.75-10.32
		c-3.14-4.74-4.72-9.98-4.72-15.72c0-8.34,3.85-15.27,11.55-20.78c6.29-4.56,14.01-7.52,23.17-8.89c0.5-0.04,0.89-0.07,1.16-0.07
		c0.68,0,1.23,0.55,1.64,1.64c1.18,3.33,3.94,9.34,8.27,18.05c0.14,0.27,0.21,0.5,0.21,0.68c0,0.78-0.41,1.16-1.23,1.16
		c-0.37,0-0.98-0.07-1.85-0.21c-0.87-0.14-1.53-0.21-1.98-0.21c-3.28,0-6.15,0.75-8.61,2.26c-2.96,1.73-4.44,4.15-4.44,7.25
		c0,2.78,1.64,6.2,4.92,10.25c5.79,7.29,8.82,11.12,9.09,11.48C239.56,82.99,241.17,87.98,241.17,92.95z"/>
	<path class="st2" d="M319.1,49.41c0,0.91-0.5,1.37-1.5,1.37c-1.73,0-8.59-0.34-20.58-1.03c-0.27,11.53-0.41,19.57-0.41,24.13
		c0,5.38,0.22,13.47,0.65,24.27c0.43,10.8,0.65,18.89,0.65,24.27c0,0.87-0.21,1.41-0.62,1.64c-0.14,0.09-0.78,0.21-1.91,0.34
		c-2.73,0.36-6.74,0.55-12.03,0.55c-5.88,0-10-0.18-12.37-0.55c-1.28-0.23-1.91-0.93-1.91-2.12c0-5.38,0.23-13.44,0.68-24.2
		c0.46-10.75,0.68-18.82,0.68-24.2c0-3.55-0.18-11.48-0.55-23.79c-9.12,0.91-16.38,1.37-21.81,1.37c-0.73,0-1.09-0.23-1.09-0.68
		c0-0.59,0.32-2.35,0.96-5.26c0.73-3.19,1.14-5.13,1.23-5.81c0.14-2.14,0.3-4.28,0.48-6.43c0.32-3.42,0.87-5.13,1.64-5.13
		c0.09,0,0.41,0.02,0.96,0.07c7.38,0.96,18.3,1.44,32.74,1.44c4.1,0,11.67-0.43,22.69-1.3c5.92-0.46,8.91-0.68,8.96-0.68
		c0.91,0,1.44,0.06,1.57,0.17c0.14,0.11,0.23,0.56,0.27,1.33c0,1.23-0.04,2.94-0.14,5.13c-0.09,2.42-0.14,4.13-0.14,5.13
		c0,1.14,0.15,2.81,0.45,5.02C318.95,46.66,319.1,48.31,319.1,49.41z"/>
	<path class="st2" d="M421.37,76.54c0,14.22-4.54,26.14-13.6,35.75c-9.25,9.75-20.96,14.63-35.14,14.63
		c-14.08,0-25.77-4.92-35.07-14.77c-9.12-9.62-13.67-21.49-13.67-35.62c0-14.17,4.56-26.09,13.67-35.75
		c9.3-9.89,20.99-14.83,35.07-14.83c13.99,0,25.66,4.95,35,14.83C416.79,50.55,421.37,62.46,421.37,76.54z M395.46,76.41
		c0-6.84-2.07-12.65-6.22-17.43c-4.33-5.01-9.87-7.52-16.61-7.52c-6.43,0-11.87,2.6-16.34,7.79c-4.33,5.01-6.49,10.78-6.49,17.29
		c0,6.97,2.03,12.78,6.08,17.43c4.28,4.88,9.87,7.31,16.75,7.31c6.43,0,11.89-2.57,16.41-7.72
		C393.32,88.64,395.46,82.93,395.46,76.41z"/>
	<path class="st2" d="M513.04,123.71c0,0.32-0.46,0.55-1.37,0.68c-1.73,0.27-6.08,0.41-13.06,0.41c-5.97,0-10.03-0.14-12.17-0.41
		c-1-0.14-1.57-0.25-1.71-0.34c-0.27-0.14-0.59-0.59-0.96-1.37c-0.68-1.78-1.69-4.42-3.01-7.93c-1.78-4.56-4.56-11.28-8.34-20.17
		c-0.82-1.78-2.71-2.76-5.67-2.94c1.37,0.09-0.98,0.14-7.04,0.14c-0.68,0-1.03,1.16-1.03,3.49c0,3.1,0.28,7.72,0.85,13.88
		c0.57,6.15,0.85,10.78,0.85,13.88c0,0.78-0.21,1.23-0.62,1.37c-0.64,0.04-1.28,0.09-1.91,0.14c-2.69,0.18-6.88,0.27-12.58,0.27
		c-6.52,0-10.44-0.14-11.76-0.41c-1.32-0.27-1.98-0.98-1.98-2.12c0-5.01,0.24-12.58,0.72-22.7s0.72-17.71,0.72-22.76
		c0-19.28-0.43-34.32-1.3-45.12l-0.07-0.96c-0.05-0.77,0.67-1.3,2.15-1.57c1.48-0.27,8.44-0.55,20.88-0.82
		c8.43-0.18,15.15-0.27,20.17-0.27c10.39,0,18.87,2.35,25.43,7.04c7.43,5.29,11.14,12.92,11.14,22.9c0,6.65-0.96,11.96-2.87,15.93
		s-5.45,7.82-10.6,11.55c-1.05,0.73-1.57,1.41-1.57,2.05c0-0.04,2.78,5.67,8.34,17.16C510.26,116.19,513.04,122.53,513.04,123.71z
		 M484.33,62.39c0-5.56-1.82-9.41-5.47-11.55c-2.83-1.64-7.25-2.46-13.26-2.46c-4.33,0-6.63,0.66-6.9,1.98
		c-0.27,1.55-0.41,6.02-0.41,13.4c0,1.05,0.02,2.6,0.07,4.65c0.04,2.05,0.07,3.58,0.07,4.58c0,0.23,0.73,0.46,2.19,0.68
		c2.78,0.41,5.7,0.62,8.75,0.62C479.34,74.29,484.33,70.32,484.33,62.39z"/>
	<path class="st2" d="M590.76,103.14c0,1.96-0.39,5.56-1.16,10.8c-0.82,5.7-1.55,9.09-2.19,10.19c-0.55,0.87-1.3,1.3-2.26,1.3
		c-0.41,0-1.09-0.07-2.05-0.21c-3.33-0.46-13.03-0.68-29.12-0.68c-3.51,0-8.73-0.02-15.65-0.07c-6.93-0.05-12.12-0.07-15.59-0.07
		c-1.5,0-2.26-0.66-2.26-1.98c0-5.1,0.28-12.77,0.85-23c0.57-10.23,0.85-17.9,0.85-23c0-5.2-0.27-14.88-0.82-29.05
		c-0.14-3.65-0.39-9.09-0.75-16.34l-0.07-0.96c-0.09-1.05,0.48-1.57,1.71-1.57c3.37,0,8.44,0.09,15.21,0.27
		c6.77,0.18,11.84,0.27,15.21,0.27c3.33,0,8.34-0.09,15.04-0.27c6.7-0.18,11.71-0.27,15.04-0.27c2.37,0,3.74,0.89,4.1,2.67
		c0.23,1.05,0.58,4.23,1.06,9.54c0.48,5.31,0.72,8.53,0.72,9.67c0,0.96-0.46,1.44-1.37,1.44c-0.27,0-0.75-0.02-1.44-0.07
		c-12.12-1-23.01-1.5-32.68-1.5c-2.42,0-3.9,0.57-4.44,1.71c-0.23,0.55-0.34,2.3-0.34,5.26c0,3.1,0.46,5.15,1.37,6.15
		c0.77,0.87,2.26,1.3,4.44,1.3c0.46,0,1.34-0.03,2.67-0.1c1.32-0.07,2.42-0.1,3.28-0.1c5.74,0,11.55-0.16,17.43-0.48
		c0.5-0.04,1.75-0.16,3.76-0.34c1.55-0.18,2.78-0.27,3.69-0.27c1.09,0,1.64,0.52,1.64,1.57c0-0.96-0.41,2.53-1.23,10.46
		c-0.37,3.65-0.55,7.29-0.55,10.94c0,0.91-0.66,1.37-1.98,1.37L576.75,87c-2.6-0.27-8.52-0.41-17.77-0.41h-7.25
		c-1.87,0-2.96,0.46-3.28,1.37c-0.05,0.23-0.07,1.64-0.07,4.24c0,3.46,0.23,5.7,0.68,6.7c0.77,1.73,3.69,2.76,8.75,3.08
		c-0.09,0,3.24,0,9.98,0c2.42,0,6-0.22,10.77-0.65c4.76-0.43,8.33-0.65,10.7-0.65C590.26,100.68,590.76,101.5,590.76,103.14z"/>
</g>
<g>
</g>
<g>
</g>
<g>
</g>
<g>
</g>
<g>
</g>
</svg>
